# Blender v3.0.1 OBJ File: 'puppet.blend'
# www.blender.org
mtllib puppetBottom2.mtl
o Roundcube.012_Roundcube.015
v 0.577350 -0.602723 -0.571383
v 0.433013 -0.663815 -0.630326
v 0.288675 -0.704143 -0.669237
v 0.144338 -0.727245 -0.691526
v 0.000000 -0.734780 -0.698797
v -0.144338 -0.727245 -0.691526
v -0.288675 -0.704143 -0.669237
v -0.433013 -0.663815 -0.630326
v 0.637377 -0.459483 -0.633983
v 0.478033 -0.506276 -0.732648
v 0.318689 -0.537127 -0.795633
v 0.159344 -0.554789 -0.831125
v 0.000000 -0.560549 -0.842622
v -0.159344 -0.554789 -0.831125
v -0.318689 -0.537127 -0.795633
v -0.478033 -0.506276 -0.732648
v 0.677003 -0.315877 -0.676185
v 0.507752 -0.348094 -0.799016
v 0.338502 -0.369292 -0.876230
v 0.169251 -0.381416 -0.919438
v 0.000000 -0.385369 -0.933394
v -0.169251 -0.381416 -0.919438
v -0.338502 -0.369292 -0.876230
v -0.507752 -0.348094 -0.799016
v 0.699702 -0.171969 -0.701464
v 0.524777 -0.189416 -0.837664
v 0.349851 -0.200845 -0.922669
v 0.174926 -0.207369 -0.970089
v 0.000000 -0.209494 -0.985386
v -0.174926 -0.207369 -0.970089
v -0.349851 -0.200845 -0.922669
v -0.524777 -0.189416 -0.837664
v 0.707107 -0.027787 -0.711450
v 0.530330 -0.030304 -0.852112
v 0.353553 -0.031872 -0.939721
v 0.176777 -0.032746 -0.988549
v 0.000000 -0.033028 -1.004296
v -0.176777 -0.032746 -0.988549
v -0.353553 -0.031872 -0.939721
v -0.530330 -0.030304 -0.852112
v -0.577350 -0.602723 -0.571383
v -0.637377 -0.660158 -0.425994
v -0.677003 -0.697194 -0.280971
v -0.699702 -0.717307 -0.136250
v -0.707107 -0.722128 0.008197
v -0.699702 -0.712142 0.152379
v -0.677003 -0.686864 0.296287
v -0.637377 -0.644661 0.439892
v -0.637377 -0.459483 -0.633983
v -0.736864 -0.501644 -0.473859
v -0.800391 -0.528508 -0.314008
v -0.836193 -0.542678 -0.154385
v -0.847791 -0.545379 0.005034
v -0.836193 -0.536976 0.164253
v -0.800391 -0.517103 0.323267
v -0.736864 -0.484537 0.482054
v -0.677003 -0.315877 -0.676185
v -0.800391 -0.342857 -0.506425
v -0.877971 -0.359639 -0.336846
v -0.921389 -0.367958 -0.167420
v -0.935414 -0.368631 0.001870
v -0.921389 -0.361901 0.171028
v -0.877971 -0.347525 0.340048
v -0.800391 -0.324686 0.508918
v -0.699702 -0.171969 -0.701464
v -0.836193 -0.183843 -0.526297
v -0.921389 -0.190618 -0.351223
v -0.968918 -0.193162 -0.176224
v -0.984251 -0.191883 -0.001293
v -0.968918 -0.186902 0.173572
v -0.921389 -0.178098 0.348368
v -0.836193 -0.165063 0.523088
v -0.707107 -0.027787 -0.711450
v -0.847791 -0.024624 -0.534701
v -0.935414 -0.021461 -0.357953
v -0.984251 -0.018297 -0.181204
v -1.000000 -0.015134 -0.004456
v -0.984251 -0.011971 0.172292
v -0.935414 -0.008808 0.349041
v -0.847791 -0.005645 0.525789
v -0.577350 -0.582061 0.583133
v -0.433013 -0.641005 0.644224
v -0.288675 -0.679915 0.684553
v -0.144338 -0.702204 0.707655
v 0.000000 -0.709475 0.715190
v 0.144338 -0.702204 0.707655
v 0.288675 -0.679915 0.684553
v 0.433013 -0.641005 0.644224
v -0.637377 -0.436673 0.640568
v -0.478033 -0.479905 0.740844
v -0.318689 -0.508483 0.804892
v -0.159344 -0.524864 0.840993
v 0.000000 -0.530209 0.852689
v 0.159344 -0.524864 0.840993
v 0.318689 -0.508483 0.804892
v 0.478033 -0.479905 0.740844
v -0.677003 -0.291649 0.677604
v -0.507752 -0.319450 0.801509
v -0.338502 -0.337871 0.879432
v -0.169251 -0.348442 0.923046
v 0.000000 -0.351893 0.937135
v 0.169251 -0.348442 0.923046
v 0.338502 -0.337871 0.879432
v 0.507752 -0.319450 0.801509
v -0.699702 -0.146928 0.697717
v -0.524777 -0.159490 0.834454
v -0.349851 -0.167871 0.919814
v -0.174926 -0.172694 0.967437
v 0.000000 -0.174271 0.982800
v 0.174926 -0.172694 0.967437
v 0.349851 -0.167871 0.919814
v 0.524777 -0.159490 0.834454
v -0.707107 -0.002481 0.702538
v -0.530330 0.000036 0.843199
v -0.353553 0.001604 0.930809
v -0.176777 0.002478 0.979637
v 0.000000 0.002760 0.995384
v 0.176777 0.002478 0.979637
v 0.353553 0.001604 0.930809
v 0.530330 0.000036 0.843199
v 0.577350 -0.582061 0.583133
v 0.637377 -0.644661 0.439892
v 0.677003 -0.686864 0.296287
v 0.699702 -0.712142 0.152379
v 0.707107 -0.722128 0.008197
v 0.699702 -0.717307 -0.136250
v 0.677003 -0.697194 -0.280971
v 0.637377 -0.660158 -0.425994
v 0.637377 -0.436673 0.640568
v 0.736864 -0.484537 0.482054
v 0.800391 -0.517103 0.323267
v 0.836193 -0.536976 0.164253
v 0.847791 -0.545379 0.005034
v 0.836193 -0.542678 -0.154385
v 0.800391 -0.528508 -0.314008
v 0.736864 -0.501644 -0.473859
v 0.677003 -0.291649 0.677604
v 0.800391 -0.324686 0.508918
v 0.877971 -0.347525 0.340048
v 0.921389 -0.361901 0.171028
v 0.935414 -0.368631 0.001870
v 0.921389 -0.367958 -0.167420
v 0.877971 -0.359639 -0.336846
v 0.800391 -0.342857 -0.506425
v 0.699702 -0.146928 0.697717
v 0.836193 -0.165063 0.523088
v 0.921389 -0.178098 0.348368
v 0.968918 -0.186902 0.173572
v 0.984251 -0.191883 -0.001293
v 0.968918 -0.193162 -0.176224
v 0.921389 -0.190618 -0.351223
v 0.836193 -0.183843 -0.526297
v 0.707107 -0.002481 0.702538
v 0.847791 -0.005645 0.525789
v 0.935414 -0.008808 0.349041
v 0.984251 -0.011971 0.172292
v 1.000000 -0.015134 -0.004456
v 0.984251 -0.018297 -0.181204
v 0.935414 -0.021461 -0.357953
v 0.847791 -0.024624 -0.534701
v 0.478033 -0.743327 0.486686
v 0.318689 -0.806311 0.517537
v 0.159344 -0.841803 0.535199
v 0.000000 -0.853300 0.540959
v -0.159344 -0.841803 0.535199
v -0.318689 -0.806311 0.517537
v -0.478033 -0.743327 0.486686
v 0.507752 -0.809694 0.328504
v 0.338502 -0.886908 0.349701
v 0.169251 -0.930116 0.361826
v 0.000000 -0.944072 0.365779
v -0.169251 -0.930116 0.361826
v -0.338502 -0.886908 0.349701
v -0.507752 -0.809694 0.328504
v 0.524777 -0.848342 0.169825
v 0.349851 -0.933347 0.181255
v 0.174926 -0.980767 0.187779
v 0.000000 -0.996064 0.189904
v -0.174926 -0.980767 0.187779
v -0.349851 -0.933347 0.181255
v -0.524777 -0.848342 0.169825
v 0.530330 -0.862790 0.010714
v 0.353553 -0.950399 0.012282
v 0.176777 -0.999228 0.013156
v 0.000000 -1.014974 0.013438
v -0.176777 -0.999228 0.013156
v -0.353553 -0.950399 0.012282
v -0.530330 -0.862790 0.010714
v 0.524777 -0.854045 -0.148812
v 0.349851 -0.939404 -0.157193
v 0.174926 -0.987027 -0.162016
v 0.000000 -1.002391 -0.163593
v -0.174926 -0.987027 -0.162016
v -0.349851 -0.939404 -0.157193
v -0.524777 -0.854045 -0.148812
v 0.507752 -0.821099 -0.308772
v 0.338502 -0.899022 -0.327193
v 0.169251 -0.942636 -0.337764
v 0.000000 -0.956725 -0.341215
v -0.169251 -0.942636 -0.337764
v -0.338502 -0.899022 -0.327193
v -0.507752 -0.821099 -0.308772
v 0.478033 -0.760434 -0.469227
v 0.318689 -0.824482 -0.497805
v 0.159344 -0.860583 -0.514186
v 0.000000 -0.872279 -0.519531
v -0.159344 -0.860583 -0.514186
v -0.318689 -0.824482 -0.497805
v -0.478033 -0.760434 -0.469227
vn 0.5773 -0.5876 -0.5669
vn 0.4428 -0.6452 -0.6225
vn 0.4772 -0.4903 -0.7293
vn 0.6340 -0.4541 -0.6260
vn 0.2958 -0.6874 -0.6632
vn 0.3172 -0.5243 -0.7902
vn 0.1480 -0.7117 -0.6867
vn 0.1584 -0.5433 -0.8245
vn 0.0000 -0.7196 -0.6943
vn 0.0000 -0.5494 -0.8355
vn -0.1480 -0.7117 -0.6867
vn -0.1584 -0.5433 -0.8245
vn -0.2958 -0.6874 -0.6632
vn -0.3172 -0.5243 -0.7902
vn -0.4428 -0.6452 -0.6225
vn -0.4772 -0.4903 -0.7293
vn -0.5773 -0.5876 -0.5669
vn -0.6340 -0.4541 -0.6260
vn 0.5101 -0.3315 -0.7937
vn 0.6754 -0.3079 -0.6700
vn 0.3392 -0.3548 -0.8712
vn 0.1694 -0.3678 -0.9143
vn 0.0000 -0.3720 -0.9282
vn -0.1694 -0.3678 -0.9143
vn -0.3392 -0.3548 -0.8712
vn -0.5101 -0.3315 -0.7937
vn -0.6754 -0.3079 -0.6700
vn 0.5284 -0.1733 -0.8311
vn 0.6993 -0.1606 -0.6965
vn 0.3514 -0.1858 -0.9176
vn 0.1755 -0.1928 -0.9654
vn 0.0000 -0.1950 -0.9808
vn -0.1755 -0.1928 -0.9654
vn -0.3514 -0.1858 -0.9176
vn -0.5284 -0.1733 -0.8311
vn -0.6993 -0.1606 -0.6965
vn 0.4039 0.6432 -0.6504
vn 0.5346 0.6448 -0.5462
vn 0.2685 0.6423 -0.7179
vn 0.1341 0.6416 -0.7552
vn 0.0000 0.6413 -0.7672
vn -0.1341 0.6416 -0.7552
vn -0.2685 0.6423 -0.7179
vn -0.4039 0.6432 -0.6504
vn -0.5346 0.6448 -0.5462
vn -0.6340 -0.6418 -0.4314
vn -0.7379 -0.4856 -0.4686
vn -0.6754 -0.6806 -0.2837
vn -0.7995 -0.5157 -0.3081
vn -0.6993 -0.7018 -0.1355
vn -0.8340 -0.5312 -0.1489
vn -0.7071 -0.7070 0.0126
vn -0.8452 -0.5343 0.0096
vn -0.6993 -0.6965 0.1606
vn -0.8340 -0.5255 0.1678
vn -0.6754 -0.6700 0.3079
vn -0.7995 -0.5043 0.3263
vn -0.6340 -0.6260 0.4541
vn -0.7379 -0.4686 0.4856
vn -0.5773 -0.5669 0.5876
vn -0.6340 -0.4314 0.6418
vn -0.7995 -0.3263 -0.5043
vn -0.8774 -0.3452 -0.3330
vn -0.9208 -0.3544 -0.1631
vn -0.9347 -0.3552 0.0063
vn -0.9208 -0.3483 0.1756
vn -0.8774 -0.3330 0.3452
vn -0.7995 -0.3081 0.5157
vn -0.6754 -0.2837 0.6806
vn -0.8340 -0.1678 -0.5255
vn -0.9208 -0.1756 -0.3483
vn -0.9687 -0.1786 -0.1723
vn -0.9841 -0.1774 0.0032
vn -0.9687 -0.1723 0.1786
vn -0.9208 -0.1631 0.3544
vn -0.8340 -0.1489 0.5312
vn -0.6993 -0.1355 0.7018
vn -0.6388 0.6474 -0.4155
vn -0.7063 0.6501 -0.2801
vn -0.7436 0.6525 -0.1458
vn -0.7556 0.6549 -0.0117
vn -0.7436 0.6573 0.1223
vn -0.7063 0.6597 0.2567
vn -0.6388 0.6619 0.3921
vn -0.5346 0.6639 0.5228
vn -0.4428 -0.6225 0.6452
vn -0.4772 -0.4639 0.7463
vn -0.2958 -0.6632 0.6874
vn -0.3172 -0.4957 0.8085
vn -0.1480 -0.6867 0.7117
vn -0.1584 -0.5134 0.8433
vn 0.0000 -0.6943 0.7196
vn 0.0000 -0.5192 0.8547
vn 0.1480 -0.6867 0.7117
vn 0.1584 -0.5134 0.8433
vn 0.2958 -0.6632 0.6874
vn 0.3172 -0.4957 0.8085
vn 0.4428 -0.6225 0.6452
vn 0.4772 -0.4639 0.7463
vn 0.5773 -0.5669 0.5876
vn 0.6340 -0.4314 0.6418
vn -0.5101 -0.3029 0.8050
vn -0.3392 -0.3234 0.8834
vn -0.1694 -0.3348 0.9269
vn 0.0000 -0.3385 0.9409
vn 0.1694 -0.3348 0.9269
vn 0.3392 -0.3234 0.8834
vn 0.5101 -0.3029 0.8050
vn 0.6754 -0.2837 0.6806
vn -0.5284 -0.1434 0.8367
vn -0.3514 -0.1529 0.9236
vn -0.1755 -0.1581 0.9717
vn 0.0000 -0.1598 0.9871
vn 0.1755 -0.1581 0.9717
vn 0.3514 -0.1529 0.9236
vn 0.5284 -0.1434 0.8367
vn 0.6993 -0.1355 0.7018
vn -0.4039 0.6661 0.6270
vn -0.2685 0.6676 0.6944
vn -0.1341 0.6682 0.7318
vn 0.0000 0.6684 0.7438
vn 0.1341 0.6682 0.7318
vn 0.2685 0.6676 0.6944
vn 0.4039 0.6661 0.6270
vn 0.5346 0.6639 0.5228
vn 0.6340 -0.6260 0.4541
vn 0.7379 -0.4686 0.4856
vn 0.6754 -0.6700 0.3079
vn 0.7995 -0.5043 0.3263
vn 0.6993 -0.6965 0.1606
vn 0.8340 -0.5255 0.1678
vn 0.7071 -0.7070 0.0126
vn 0.8452 -0.5343 0.0096
vn 0.6993 -0.7018 -0.1355
vn 0.8340 -0.5312 -0.1489
vn 0.6754 -0.6806 -0.2837
vn 0.7995 -0.5157 -0.3081
vn 0.6340 -0.6418 -0.4314
vn 0.7379 -0.4856 -0.4686
vn 0.7995 -0.3081 0.5157
vn 0.8774 -0.3330 0.3452
vn 0.9208 -0.3483 0.1756
vn 0.9347 -0.3552 0.0063
vn 0.9208 -0.3544 -0.1631
vn 0.8774 -0.3452 -0.3330
vn 0.7995 -0.3263 -0.5043
vn 0.8340 -0.1489 0.5312
vn 0.9208 -0.1631 0.3544
vn 0.9687 -0.1723 0.1786
vn 0.9841 -0.1774 0.0032
vn 0.9687 -0.1786 -0.1723
vn 0.9208 -0.1756 -0.3483
vn 0.8340 -0.1678 -0.5255
vn 0.6388 0.6619 0.3921
vn 0.7063 0.6597 0.2567
vn 0.7436 0.6573 0.1223
vn 0.7556 0.6549 -0.0117
vn 0.7436 0.6525 -0.1458
vn 0.7063 0.6501 -0.2801
vn 0.6388 0.6474 -0.4155
vn 0.4772 -0.7293 0.4903
vn 0.3172 -0.7902 0.5243
vn 0.1584 -0.8245 0.5433
vn 0.0000 -0.8355 0.5494
vn -0.1584 -0.8245 0.5433
vn -0.3172 -0.7902 0.5243
vn -0.4772 -0.7293 0.4903
vn 0.5101 -0.7937 0.3315
vn 0.3392 -0.8712 0.3548
vn 0.1694 -0.9143 0.3678
vn 0.0000 -0.9282 0.3720
vn -0.1694 -0.9143 0.3678
vn -0.3392 -0.8712 0.3548
vn -0.5101 -0.7937 0.3315
vn 0.5284 -0.8311 0.1733
vn 0.3514 -0.9176 0.1858
vn 0.1755 -0.9654 0.1928
vn 0.0000 -0.9808 0.1950
vn -0.1755 -0.9654 0.1928
vn -0.3514 -0.9176 0.1858
vn -0.5284 -0.8311 0.1733
vn 0.5343 -0.8451 0.0151
vn 0.3553 -0.9346 0.0167
vn 0.1774 -0.9839 0.0176
vn 0.0000 -0.9998 0.0179
vn -0.1774 -0.9839 0.0176
vn -0.3553 -0.9346 0.0167
vn -0.5343 -0.8451 0.0151
vn 0.5284 -0.8367 -0.1434
vn 0.3514 -0.9236 -0.1529
vn 0.1755 -0.9717 -0.1581
vn 0.0000 -0.9871 -0.1598
vn -0.1755 -0.9717 -0.1581
vn -0.3514 -0.9236 -0.1529
vn -0.5284 -0.8367 -0.1434
vn 0.5101 -0.8050 -0.3029
vn 0.3392 -0.8834 -0.3234
vn 0.1694 -0.9269 -0.3348
vn 0.0000 -0.9409 -0.3385
vn -0.1694 -0.9269 -0.3348
vn -0.3392 -0.8834 -0.3234
vn -0.5101 -0.8050 -0.3029
vn 0.4772 -0.7463 -0.4639
vn 0.3172 -0.8085 -0.4957
vn 0.1584 -0.8433 -0.5134
vn 0.0000 -0.8547 -0.5192
vn -0.1584 -0.8433 -0.5134
vn -0.3172 -0.8085 -0.4957
vn -0.4772 -0.7463 -0.4639
usemtl None
s 1
f 1//1 2//2 10//3 9//4
f 2//2 3//5 11//6 10//3
f 3//5 4//7 12//8 11//6
f 4//7 5//9 13//10 12//8
f 5//9 6//11 14//12 13//10
f 6//11 7//13 15//14 14//12
f 7//13 8//15 16//16 15//14
f 8//15 41//17 49//18 16//16
f 9//4 10//3 18//19 17//20
f 10//3 11//6 19//21 18//19
f 11//6 12//8 20//22 19//21
f 12//8 13//10 21//23 20//22
f 13//10 14//12 22//24 21//23
f 14//12 15//14 23//25 22//24
f 15//14 16//16 24//26 23//25
f 16//16 49//18 57//27 24//26
f 17//20 18//19 26//28 25//29
f 18//19 19//21 27//30 26//28
f 19//21 20//22 28//31 27//30
f 20//22 21//23 29//32 28//31
f 21//23 22//24 30//33 29//32
f 22//24 23//25 31//34 30//33
f 23//25 24//26 32//35 31//34
f 24//26 57//27 65//36 32//35
f 25//29 26//28 34//37 33//38
f 26//28 27//30 35//39 34//37
f 27//30 28//31 36//40 35//39
f 28//31 29//32 37//41 36//40
f 29//32 30//33 38//42 37//41
f 30//33 31//34 39//43 38//42
f 31//34 32//35 40//44 39//43
f 32//35 65//36 73//45 40//44
f 41//17 42//46 50//47 49//18
f 42//46 43//48 51//49 50//47
f 43//48 44//50 52//51 51//49
f 44//50 45//52 53//53 52//51
f 45//52 46//54 54//55 53//53
f 46//54 47//56 55//57 54//55
f 47//56 48//58 56//59 55//57
f 48//58 81//60 89//61 56//59
f 49//18 50//47 58//62 57//27
f 50//47 51//49 59//63 58//62
f 51//49 52//51 60//64 59//63
f 52//51 53//53 61//65 60//64
f 53//53 54//55 62//66 61//65
f 54//55 55//57 63//67 62//66
f 55//57 56//59 64//68 63//67
f 56//59 89//61 97//69 64//68
f 57//27 58//62 66//70 65//36
f 58//62 59//63 67//71 66//70
f 59//63 60//64 68//72 67//71
f 60//64 61//65 69//73 68//72
f 61//65 62//66 70//74 69//73
f 62//66 63//67 71//75 70//74
f 63//67 64//68 72//76 71//75
f 64//68 97//69 105//77 72//76
f 65//36 66//70 74//78 73//45
f 66//70 67//71 75//79 74//78
f 67//71 68//72 76//80 75//79
f 68//72 69//73 77//81 76//80
f 69//73 70//74 78//82 77//81
f 70//74 71//75 79//83 78//82
f 71//75 72//76 80//84 79//83
f 72//76 105//77 113//85 80//84
f 81//60 82//86 90//87 89//61
f 82//86 83//88 91//89 90//87
f 83//88 84//90 92//91 91//89
f 84//90 85//92 93//93 92//91
f 85//92 86//94 94//95 93//93
f 86//94 87//96 95//97 94//95
f 87//96 88//98 96//99 95//97
f 88//98 121//100 129//101 96//99
f 89//61 90//87 98//102 97//69
f 90//87 91//89 99//103 98//102
f 91//89 92//91 100//104 99//103
f 92//91 93//93 101//105 100//104
f 93//93 94//95 102//106 101//105
f 94//95 95//97 103//107 102//106
f 95//97 96//99 104//108 103//107
f 96//99 129//101 137//109 104//108
f 97//69 98//102 106//110 105//77
f 98//102 99//103 107//111 106//110
f 99//103 100//104 108//112 107//111
f 100//104 101//105 109//113 108//112
f 101//105 102//106 110//114 109//113
f 102//106 103//107 111//115 110//114
f 103//107 104//108 112//116 111//115
f 104//108 137//109 145//117 112//116
f 105//77 106//110 114//118 113//85
f 106//110 107//111 115//119 114//118
f 107//111 108//112 116//120 115//119
f 108//112 109//113 117//121 116//120
f 109//113 110//114 118//122 117//121
f 110//114 111//115 119//123 118//122
f 111//115 112//116 120//124 119//123
f 112//116 145//117 153//125 120//124
f 121//100 122//126 130//127 129//101
f 122//126 123//128 131//129 130//127
f 123//128 124//130 132//131 131//129
f 124//130 125//132 133//133 132//131
f 125//132 126//134 134//135 133//133
f 126//134 127//136 135//137 134//135
f 127//136 128//138 136//139 135//137
f 128//138 1//1 9//4 136//139
f 129//101 130//127 138//140 137//109
f 130//127 131//129 139//141 138//140
f 131//129 132//131 140//142 139//141
f 132//131 133//133 141//143 140//142
f 133//133 134//135 142//144 141//143
f 134//135 135//137 143//145 142//144
f 135//137 136//139 144//146 143//145
f 136//139 9//4 17//20 144//146
f 137//109 138//140 146//147 145//117
f 138//140 139//141 147//148 146//147
f 139//141 140//142 148//149 147//148
f 140//142 141//143 149//150 148//149
f 141//143 142//144 150//151 149//150
f 142//144 143//145 151//152 150//151
f 143//145 144//146 152//153 151//152
f 144//146 17//20 25//29 152//153
f 145//117 146//147 154//154 153//125
f 146//147 147//148 155//155 154//154
f 147//148 148//149 156//156 155//155
f 148//149 149//150 157//157 156//156
f 149//150 150//151 158//158 157//157
f 150//151 151//152 159//159 158//158
f 151//152 152//153 160//160 159//159
f 152//153 25//29 33//38 160//160
f 121//100 88//98 161//161 122//126
f 88//98 87//96 162//162 161//161
f 87//96 86//94 163//163 162//162
f 86//94 85//92 164//164 163//163
f 85//92 84//90 165//165 164//164
f 84//90 83//88 166//166 165//165
f 83//88 82//86 167//167 166//166
f 82//86 81//60 48//58 167//167
f 122//126 161//161 168//168 123//128
f 161//161 162//162 169//169 168//168
f 162//162 163//163 170//170 169//169
f 163//163 164//164 171//171 170//170
f 164//164 165//165 172//172 171//171
f 165//165 166//166 173//173 172//172
f 166//166 167//167 174//174 173//173
f 167//167 48//58 47//56 174//174
f 123//128 168//168 175//175 124//130
f 168//168 169//169 176//176 175//175
f 169//169 170//170 177//177 176//176
f 170//170 171//171 178//178 177//177
f 171//171 172//172 179//179 178//178
f 172//172 173//173 180//180 179//179
f 173//173 174//174 181//181 180//180
f 174//174 47//56 46//54 181//181
f 124//130 175//175 182//182 125//132
f 175//175 176//176 183//183 182//182
f 176//176 177//177 184//184 183//183
f 177//177 178//178 185//185 184//184
f 178//178 179//179 186//186 185//185
f 179//179 180//180 187//187 186//186
f 180//180 181//181 188//188 187//187
f 181//181 46//54 45//52 188//188
f 125//132 182//182 189//189 126//134
f 182//182 183//183 190//190 189//189
f 183//183 184//184 191//191 190//190
f 184//184 185//185 192//192 191//191
f 185//185 186//186 193//193 192//192
f 186//186 187//187 194//194 193//193
f 187//187 188//188 195//195 194//194
f 188//188 45//52 44//50 195//195
f 126//134 189//189 196//196 127//136
f 189//189 190//190 197//197 196//196
f 190//190 191//191 198//198 197//197
f 191//191 192//192 199//199 198//198
f 192//192 193//193 200//200 199//199
f 193//193 194//194 201//201 200//200
f 194//194 195//195 202//202 201//201
f 195//195 44//50 43//48 202//202
f 127//136 196//196 203//203 128//138
f 196//196 197//197 204//204 203//203
f 197//197 198//198 205//205 204//204
f 198//198 199//199 206//206 205//205
f 199//199 200//200 207//207 206//206
f 200//200 201//201 208//208 207//207
f 201//201 202//202 209//209 208//208
f 202//202 43//48 42//46 209//209
f 128//138 203//203 2//2 1//1
f 203//203 204//204 3//5 2//2
f 204//204 205//205 4//7 3//5
f 205//205 206//206 5//9 4//7
f 206//206 207//207 6//11 5//9
f 207//207 208//208 7//13 6//11
f 208//208 209//209 8//15 7//13
f 209//209 42//46 41//17 8//15
f 33//38 34//37 35//39 36//40 37//41 38//42 39//43 40//44 73//45 74//78 75//79 76//80 77//81 78//82 79//83 80//84 113//85 114//118 115//119 116//120 117//121 118//122 119//123 120//124 153//125 154//154 155//155 156//156 157//157 158//158 159//159 160//160
