# Blender v3.0.1 OBJ File: ''
# www.blender.org
mtllib rods.mtl
o rod_Sphere.003
v -0.002212 0.257906 -0.144794
v -0.004246 0.222402 -0.206402
v -2.429847 0.287015 -0.163586
v -2.427814 0.322518 -0.101977
v -0.006436 0.175555 -0.259889
v -2.432039 0.240168 -0.217072
v -0.000415 0.280702 -0.077432
v 0.001074 0.289915 -0.006904
v 0.002202 0.285190 0.064079
v 0.002923 0.266709 0.132789
v 0.003209 0.235183 0.196587
v 0.003050 0.191822 0.253020
v 0.002451 0.138294 0.299919
v 0.001437 0.076654 0.335482
v 0.000047 0.009272 0.358343
v -0.001669 -0.061261 0.367622
v -0.003641 -0.132238 0.362964
v -0.005796 -0.200927 0.344548
v -0.008051 -0.264692 0.313081
v -0.010316 -0.321082 0.269772
v -0.012509 -0.367929 0.216285
v -0.014543 -0.403432 0.154677
v -0.016338 -0.426229 0.087315
v -0.017830 -0.435443 0.016787
v -0.018956 -0.430717 -0.054196
v -0.019677 -0.412237 -0.122906
v -0.019962 -0.380710 -0.186704
v -0.019803 -0.337350 -0.243136
v -0.019206 -0.283821 -0.290036
v -0.018192 -0.222181 -0.325598
v -0.016800 -0.154799 -0.348459
v -0.015085 -0.084266 -0.357739
v -0.013113 -0.013289 -0.353082
v -0.010958 0.055402 -0.334665
v -0.008704 0.119165 -0.303197
v -2.426021 0.345315 -0.034615
v -2.434306 0.183778 -0.260381
v -2.436561 0.120013 -0.291848
v -2.438715 0.051322 -0.310265
v -2.440689 -0.019654 -0.314923
v -2.442404 -0.090188 -0.305643
v -2.443795 -0.157569 -0.282783
v -2.444809 -0.219209 -0.247219
v -2.445407 -0.272737 -0.200320
v -2.445566 -0.316098 -0.143887
v -2.445280 -0.347625 -0.080091
v -2.444559 -0.366105 -0.011379
v -2.443432 -0.370830 0.059603
v -2.441941 -0.361618 0.130131
v -2.440144 -0.338821 0.197494
v -2.438112 -0.303318 0.259102
v -2.435920 -0.256471 0.312588
v -2.433654 -0.200082 0.355897
v -2.431398 -0.136316 0.387365
v -2.429245 -0.067625 0.405781
v -2.427272 0.003350 0.410439
v -2.425556 0.073884 0.401159
v -2.424166 0.141266 0.378298
v -2.423152 0.202906 0.342735
v -2.422553 0.256434 0.295835
v -2.422395 0.299795 0.239403
v -2.422682 0.331322 0.175606
v -2.423401 0.349802 0.106896
v -2.424529 0.354526 0.035913
vt 0.031250 0.500000
vt 0.000000 0.500000
vt 0.000000 1.000000
vt 0.031250 1.000000
vt 1.000000 0.500000
vt 0.968750 0.500000
vt 0.968750 1.000000
vt 1.000000 1.000000
vt 0.750000 0.490000
vt 0.703178 0.485388
vt 0.658156 0.471731
vt 0.616663 0.449553
vt 0.580294 0.419706
vt 0.550447 0.383337
vt 0.528269 0.341844
vt 0.514612 0.296822
vt 0.510000 0.250000
vt 0.514612 0.203178
vt 0.528269 0.158156
vt 0.550447 0.116663
vt 0.580294 0.080294
vt 0.616663 0.050447
vt 0.658156 0.028269
vt 0.703178 0.014612
vt 0.750000 0.010000
vt 0.796822 0.014612
vt 0.841844 0.028269
vt 0.883337 0.050447
vt 0.919706 0.080294
vt 0.949553 0.116663
vt 0.971731 0.158156
vt 0.985388 0.203178
vt 0.990000 0.250000
vt 0.985388 0.296822
vt 0.971731 0.341844
vt 0.949553 0.383337
vt 0.919706 0.419706
vt 0.883337 0.449553
vt 0.841844 0.471731
vt 0.796822 0.485388
vt 0.062500 0.500000
vt 0.062500 1.000000
vt 0.296822 0.485388
vt 0.341844 0.471731
vt 0.383337 0.449553
vt 0.419706 0.419706
vt 0.449553 0.383337
vt 0.471731 0.341844
vt 0.485388 0.296822
vt 0.490000 0.250000
vt 0.485388 0.203178
vt 0.471731 0.158156
vt 0.449553 0.116663
vt 0.419706 0.080294
vt 0.383337 0.050447
vt 0.341844 0.028269
vt 0.296822 0.014612
vt 0.250000 0.010000
vt 0.203178 0.014612
vt 0.158156 0.028269
vt 0.116663 0.050447
vt 0.080294 0.080294
vt 0.050447 0.116663
vt 0.028269 0.158156
vt 0.014612 0.203178
vt 0.010000 0.250000
vt 0.014612 0.296822
vt 0.028269 0.341844
vt 0.050447 0.383337
vt 0.080294 0.419706
vt 0.116663 0.449553
vt 0.158156 0.471731
vt 0.203178 0.485388
vt 0.250000 0.490000
vt 0.093750 0.500000
vt 0.093750 1.000000
vt 0.125000 0.500000
vt 0.125000 1.000000
vt 0.156250 0.500000
vt 0.156250 1.000000
vt 0.187500 0.500000
vt 0.187500 1.000000
vt 0.218750 0.500000
vt 0.218750 1.000000
vt 0.250000 0.500000
vt 0.250000 1.000000
vt 0.281250 0.500000
vt 0.281250 1.000000
vt 0.312500 0.500000
vt 0.312500 1.000000
vt 0.343750 0.500000
vt 0.343750 1.000000
vt 0.375000 0.500000
vt 0.375000 1.000000
vt 0.406250 0.500000
vt 0.406250 1.000000
vt 0.437500 0.500000
vt 0.437500 1.000000
vt 0.468750 0.500000
vt 0.468750 1.000000
vt 0.500000 0.500000
vt 0.500000 1.000000
vt 0.531250 0.500000
vt 0.531250 1.000000
vt 0.562500 0.500000
vt 0.562500 1.000000
vt 0.593750 0.500000
vt 0.593750 1.000000
vt 0.625000 0.500000
vt 0.625000 1.000000
vt 0.656250 0.500000
vt 0.656250 1.000000
vt 0.687500 0.500000
vt 0.687500 1.000000
vt 0.718750 0.500000
vt 0.718750 1.000000
vt 0.750000 0.500000
vt 0.750000 1.000000
vt 0.781250 0.500000
vt 0.781250 1.000000
vt 0.812500 0.500000
vt 0.812500 1.000000
vt 0.843750 0.500000
vt 0.843750 1.000000
vt 0.875000 0.500000
vt 0.875000 1.000000
vt 0.906250 0.500000
vt 0.906250 1.000000
vt 0.937500 0.500000
vt 0.937500 1.000000
vn 0.6977 0.6448 -0.3122
vn 0.6936 0.5735 -0.4358
vn -0.6770 0.6100 -0.4116
vn -0.6730 0.6813 -0.2880
vn 0.6892 0.4795 -0.5432
vn -0.6815 0.5160 -0.5190
vn 0.7013 0.6905 -0.1770
vn 0.7043 0.7090 -0.0355
vn 0.7066 0.6995 0.1069
vn 0.7080 0.6625 0.2446
vn 0.7086 0.5993 0.3725
vn 0.7083 0.5124 0.4856
vn 0.7071 0.4051 0.5796
vn 0.7050 0.2816 0.6509
vn 0.7023 0.1465 0.6967
vn 0.6988 0.0051 0.7153
vn 0.6949 -0.1372 0.7059
vn 0.6905 -0.2749 0.6690
vn 0.6860 -0.4029 0.6059
vn 0.6815 -0.5160 0.5190
vn 0.6771 -0.6100 0.4116
vn 0.6730 -0.6813 0.2880
vn 0.6694 -0.7270 0.1528
vn 0.6664 -0.7455 0.0113
vn 0.6641 -0.7360 -0.1310
vn 0.6627 -0.6990 -0.2688
vn 0.6621 -0.6358 -0.3967
vn 0.6624 -0.5489 -0.5098
vn 0.6636 -0.4416 -0.6038
vn 0.6657 -0.3181 -0.6751
vn 0.6685 -0.1830 -0.7209
vn 0.6719 -0.0417 -0.7395
vn 0.6758 0.1007 -0.7301
vn 0.6802 0.2384 -0.6932
vn 0.6847 0.3664 -0.6301
vn -0.6694 0.7270 -0.1528
vn -0.6860 0.4029 -0.6059
vn -0.6905 0.2749 -0.6690
vn -0.6948 0.1372 -0.7060
vn -0.6988 -0.0052 -0.7153
vn -0.7023 -0.1465 -0.6967
vn -0.7050 -0.2816 -0.6509
vn -0.7071 -0.4051 -0.5796
vn -0.7083 -0.5124 -0.4856
vn -0.7086 -0.5993 -0.3725
vn -0.7080 -0.6625 -0.2446
vn -0.7066 -0.6995 -0.1069
vn -0.7043 -0.7090 0.0355
vn -0.7013 -0.6905 0.1770
vn -0.6977 -0.6448 0.3122
vn -0.6936 -0.5735 0.4358
vn -0.6892 -0.4795 0.5432
vn -0.6847 -0.3664 0.6301
vn -0.6801 -0.2384 0.6932
vn -0.6758 -0.1007 0.7301
vn -0.6719 0.0417 0.7395
vn -0.6684 0.1831 0.7209
vn -0.6657 0.3181 0.6751
vn -0.6636 0.4416 0.6038
vn -0.6624 0.5489 0.5098
vn -0.6621 0.6358 0.3967
vn -0.6627 0.6990 0.2688
vn -0.6641 0.7360 0.1310
vn -0.6664 0.7455 -0.0113
usemtl None
s 1
f 1/1/1 2/2/2 3/3/3 4/4/4
f 2/5/2 5/6/5 6/7/6 3/8/3
f 2/9/2 1/10/1 7/11/7 8/12/8 9/13/9 10/14/10 11/15/11 12/16/12 13/17/13 14/18/14 15/19/15 16/20/16 17/21/17 18/22/18 19/23/19 20/24/20 21/25/21 22/26/22 23/27/23 24/28/24 25/29/25 26/30/26 27/31/27 28/32/28 29/33/29 30/34/30 31/35/31 32/36/32 33/37/33 34/38/34 35/39/35 5/40/5
f 7/41/7 1/1/1 4/4/4 36/42/36
f 6/43/6 37/44/37 38/45/38 39/46/39 40/47/40 41/48/41 42/49/42 43/50/43 44/51/44 45/52/45 46/53/46 47/54/47 48/55/48 49/56/49 50/57/50 51/58/51 52/59/52 53/60/53 54/61/54 55/62/55 56/63/56 57/64/57 58/65/58 59/66/59 60/67/60 61/68/61 62/69/62 63/70/63 64/71/64 36/72/36 4/73/4 3/74/3
f 8/75/8 7/41/7 36/42/36 64/76/64
f 9/77/9 8/75/8 64/76/64 63/78/63
f 10/79/10 9/77/9 63/78/63 62/80/62
f 11/81/11 10/79/10 62/80/62 61/82/61
f 12/83/12 11/81/11 61/82/61 60/84/60
f 13/85/13 12/83/12 60/84/60 59/86/59
f 14/87/14 13/85/13 59/86/59 58/88/58
f 15/89/15 14/87/14 58/88/58 57/90/57
f 16/91/16 15/89/15 57/90/57 56/92/56
f 17/93/17 16/91/16 56/92/56 55/94/55
f 18/95/18 17/93/17 55/94/55 54/96/54
f 19/97/19 18/95/18 54/96/54 53/98/53
f 20/99/20 19/97/19 53/98/53 52/100/52
f 21/101/21 20/99/20 52/100/52 51/102/51
f 22/103/22 21/101/21 51/102/51 50/104/50
f 23/105/23 22/103/22 50/104/50 49/106/49
f 24/107/24 23/105/23 49/106/49 48/108/48
f 25/109/25 24/107/24 48/108/48 47/110/47
f 26/111/26 25/109/25 47/110/47 46/112/46
f 27/113/27 26/111/26 46/112/46 45/114/45
f 28/115/28 27/113/27 45/114/45 44/116/44
f 29/117/29 28/115/28 44/116/44 43/118/43
f 30/119/30 29/117/29 43/118/43 42/120/42
f 31/121/31 30/119/30 42/120/42 41/122/41
f 32/123/32 31/121/31 41/122/41 40/124/40
f 33/125/33 32/123/32 40/124/40 39/126/39
f 34/127/34 33/125/33 39/126/39 38/128/38
f 35/129/35 34/127/34 38/128/38 37/130/37
f 5/6/5 35/129/35 37/130/37 6/7/6
